<svg width="200" height="200" viewBox="0 0 40 40" fill="none" xmlns="http://www.w3.org/2000/svg">
  <!-- Icon part -->
  <g>
    <!-- Background circle with gradient -->
    <circle cx="20" cy="20" r="18" fill="url(#gradient)" opacity="0.15"/>
    <circle cx="20" cy="20" r="15" fill="url(#gradient)"/>
    
    <!-- Signal waves representing connectivity/eSim -->
    <path d="M12 20C12 16.6863 14.6863 14 18 14C21.3137 14 24 16.6863 24 20" stroke="white" stroke-width="2.5" stroke-linecap="round" fill="none"/>
    <path d="M8 20C8 13.3726 13.3726 8 20 8C26.6274 8 32 13.3726 32 20" stroke="white" stroke-width="2" stroke-linecap="round" fill="none" opacity="0.8"/>
    <path d="M5 20C5 11.7157 11.7157 5 20 5C28.2843 5 35 11.7157 35 20" stroke="white" stroke-width="1.5" stroke-linecap="round" fill="none" opacity="0.6"/>
    
    <!-- Shield representing security -->
    <path d="M20 10L24.5 12V16.5C24.5 20.5 22.5 24 20 25.5C17.5 24 15.5 20.5 15.5 16.5V12L20 10Z" fill="white" opacity="0.4"/>
    <path d="M20 12L22.5 13.5V16.5C22.5 19 21.5 21 20 21.5C18.5 21 17.5 19 17.5 16.5V13.5L20 12Z" fill="white" opacity="0.6"/>
  </g>
  
  <!-- Gradient definition -->
  <defs>
    <linearGradient id="gradient" x1="0%" y1="0%" x2="100%" y2="100%">
      <stop offset="0%" style="stop-color:#3B82F6;stop-opacity:1" />
      <stop offset="50%" style="stop-color:#6366F1;stop-opacity:1" />
      <stop offset="100%" style="stop-color:#8B5CF6;stop-opacity:1" />
    </linearGradient>
  </defs>
</svg>











