<svg width="400" height="200" viewBox="0 0 400 200" fill="none" xmlns="http://www.w3.org/2000/svg">
  <!-- Background (transparent for web use) -->
  <rect width="400" height="200" fill="transparent"/>
  
  <!-- Central Graphic Element - Network/Circuit Board Design -->
  <g transform="translate(200, 80)">
    <!-- 6-Pointed Network Design -->
    <!-- Top branch (white) -->
    <g stroke="white" stroke-width="3" fill="none" stroke-linecap="round" stroke-linejoin="round">
      <line x1="0" y1="0" x2="0" y2="-35"/>
      <line x1="0" y1="-35" x2="-15" y2="-45"/>
      <line x1="0" y1="-35" x2="15" y2="-45"/>
      <circle cx="0" cy="-35" r="4" fill="white"/>
      <circle cx="-15" cy="-45" r="3" fill="white"/>
      <circle cx="15" cy="-45" r="3" fill="white"/>
    </g>
    
    <!-- Top-right branch (purple) -->
    <g stroke="#A855F7" stroke-width="3" fill="none" stroke-linecap="round" stroke-linejoin="round">
      <line x1="0" y1="0" x2="30" y2="-20"/>
      <line x1="30" y1="-20" x2="45" y2="-25"/>
      <line x1="30" y1="-20" x2="40" y2="-35"/>
      <circle cx="30" cy="-20" r="4" fill="#A855F7"/>
      <circle cx="45" cy="-25" r="3" fill="#A855F7"/>
      <circle cx="40" cy="-35" r="3" fill="#A855F7"/>
    </g>
    
    <!-- Bottom-right branch (darker blue/cyan) -->
    <g stroke="#0EA5E9" stroke-width="3" fill="none" stroke-linecap="round" stroke-linejoin="round">
      <line x1="0" y1="0" x2="35" y2="20"/>
      <line x1="35" y1="20" x2="50" y2="25"/>
      <line x1="35" y1="20" x2="45" y2="35"/>
      <circle cx="35" cy="20" r="4" fill="#0EA5E9"/>
      <circle cx="50" cy="25" r="3" fill="#0EA5E9"/>
      <circle cx="45" cy="35" r="3" fill="#0EA5E9"/>
    </g>
    
    <!-- Bottom branch (lighter cyan) -->
    <g stroke="#06B6D4" stroke-width="3" fill="none" stroke-linecap="round" stroke-linejoin="round">
      <line x1="0" y1="0" x2="0" y2="35"/>
      <line x1="0" y1="35" x2="-15" y2="45"/>
      <line x1="0" y1="35" x2="15" y2="45"/>
      <circle cx="0" cy="35" r="4" fill="#06B6D4"/>
      <circle cx="-15" cy="45" r="3" fill="#06B6D4"/>
      <circle cx="15" cy="45" r="3" fill="#06B6D4"/>
    </g>
    
    <!-- Bottom-left branch (grey) -->
    <g stroke="#9CA3AF" stroke-width="3" fill="none" stroke-linecap="round" stroke-linejoin="round">
      <line x1="0" y1="0" x2="-35" y2="20"/>
      <line x1="-35" y1="20" x2="-50" y2="25"/>
      <line x1="-35" y1="20" x2="-45" y2="35"/>
      <circle cx="-35" cy="20" r="4" fill="#9CA3AF"/>
      <circle cx="-50" cy="25" r="3" fill="#9CA3AF"/>
      <circle cx="-45" cy="35" r="3" fill="#9CA3AF"/>
    </g>
    
    <!-- Top-left branch (grey) -->
    <g stroke="#9CA3AF" stroke-width="3" fill="none" stroke-linecap="round" stroke-linejoin="round">
      <line x1="0" y1="0" x2="-30" y2="-20"/>
      <line x1="-30" y1="-20" x2="-45" y2="-25"/>
      <line x1="-30" y1="-20" x2="-40" y2="-35"/>
      <circle cx="-30" cy="-20" r="4" fill="#9CA3AF"/>
      <circle cx="-45" cy="-25" r="3" fill="#9CA3AF"/>
      <circle cx="-40" cy="-35" r="3" fill="#9CA3AF"/>
    </g>
    
    <!-- Central "PS" Letters with Gradient -->
    <defs>
      <linearGradient id="psGradient" x1="0%" y1="0%" x2="100%" y2="0%">
        <stop offset="0%" style="stop-color:#1E40AF;stop-opacity:1" />
        <stop offset="100%" style="stop-color:#06B6D4;stop-opacity:1" />
      </linearGradient>
    </defs>
    <text x="-12" y="8" font-family="system-ui, -apple-system, sans-serif" font-size="32" font-weight="900" fill="url(#psGradient)">
      PS
    </text>
  </g>
  
  <!-- "PRIMESIM" Text -->
  <text x="200" y="130" font-family="system-ui, -apple-system, sans-serif" font-size="28" font-weight="700" fill="#06B6D4" text-anchor="middle" letter-spacing="2">
    PRIMESIM
  </text>
  
  <!-- "PRIME SOLUTIONS" Text -->
  <text x="200" y="155" font-family="system-ui, -apple-system, sans-serif" font-size="14" font-weight="400" fill="white" text-anchor="middle" letter-spacing="1">
    PRIME SOLUTIONS
  </text>
</svg>

