<svg width="32" height="32" viewBox="0 0 32 32" fill="none" xmlns="http://www.w3.org/2000/svg">
  <!-- Background circle with gradient -->
  <circle cx="16" cy="16" r="14" fill="url(#gradient)"/>
  
  <!-- Signal waves representing connectivity/eSim -->
  <path d="M10 16C10 13.7909 11.7909 12 14 12C16.2091 12 18 13.7909 18 16" stroke="white" stroke-width="2" stroke-linecap="round" fill="none"/>
  <path d="M7 16C7 11.5817 10.5817 8 15 8C19.4183 8 23 11.5817 23 16" stroke="white" stroke-width="1.5" stroke-linecap="round" fill="none" opacity="0.8"/>
  <path d="M5 16C5 10.4772 9.47715 6 15 6C20.5228 6 25 10.4772 25 16" stroke="white" stroke-width="1.2" stroke-linecap="round" fill="none" opacity="0.6"/>
  
  <!-- Shield representing security -->
  <path d="M16 9L19 10.5V13.5C19 16.5 17.5 19 16 20C14.5 19 13 16.5 13 13.5V10.5L16 9Z" fill="white" opacity="0.4"/>
  <path d="M16 11L17.5 12V13.5C17.5 15.5 16.75 17 16 17.5C15.25 17 14.5 15.5 14.5 13.5V12L16 11Z" fill="white" opacity="0.6"/>
  
  <!-- Gradient definition -->
  <defs>
    <linearGradient id="gradient" x1="0%" y1="0%" x2="100%" y2="100%">
      <stop offset="0%" style="stop-color:#3B82F6;stop-opacity:1" />
      <stop offset="50%" style="stop-color:#6366F1;stop-opacity:1" />
      <stop offset="100%" style="stop-color:#8B5CF6;stop-opacity:1" />
    </linearGradient>
  </defs>
</svg>
